PathFileType	4	(X/Y/Z)	RBDS014\RBDS014runT35.trc
DataRate	CameraRate	NumFrames	NumMarkers	Units	OrigDataRate	OrigDataStartFrame	OrigNumFrames
150.000000	150.000000	4	33	mm	150.000000	2250	4500
Frame#	Time	L.ASIS			L.Heel.Bottom			L.Heel.Lateral			L.Heel.Top			L.Iliac.Crest			L.MT1			L.MT5			L.PSIS			L.Shank.Bottom.Lateral			L.Shank.Bottom.Medial			L.Shank.Top.Lateral			L.Shank.Top.Medial			L.Thigh.Bottom.Lateral			L.Thigh.Bottom.Medial			L.Thigh.Top.Lateral			L.Thigh.Top.Medial			R.ASIS			R.ASY			R.Heel.Bottom			R.Heel.Lateral			R.Heel.Top			R.Iliac.Crest			R.MT1			R.MT5			R.PSIS			R.Shank.Bottom.Lateral			R.Shank.Bottom.Medial			R.Shank.Top.Lateral			R.Shank.Top.Medial			R.Thigh.Bottom.Lateral			R.Thigh.Bottom.Medial			R.Thigh.Top.Lateral			R.Thigh.Top.Medial			
		X1	Y1	Z1	X2	Y2	Z2	X3	Y3	Z3	X4	Y4	Z4	X5	Y5	Z5	X6	Y6	Z6	X7	Y7	Z7	X8	Y8	Z8	X9	Y9	Z9	X10	Y10	Z10	X11	Y11	Z11	X12	Y12	Z12	X13	Y13	Z13	X14	Y14	Z14	X15	Y15	Z15	X16	Y16	Z16	X17	Y17	Z17	X18	Y18	Z18	X19	Y19	Z19	X20	Y20	Z20	X21	Y21	Z21	X22	Y22	Z22	X23	Y23	Z23	X24	Y24	Z24	X25	Y25	Z25	X26	Y26	Z26	X27	Y27	Z27	X28	Y28	Z28	X29	Y29	Z29	X30	Y30	Z30	X31	Y31	Z31	X32	Y32	Z32	X33	Y33	Z33	

2251	15	2080.98906160713	1013.249598006392	925.7960959290726	1623.524560087347	602.8227293015424	985.2544429831155	1644.488874148693	575.9384347678546	946.4778646979557	1672.615484651977	588.7194699249288	988.793947515539	2023.1800746156	1085.228778853232	880.6802379830164	1621.168912969586	369.027944168385	1036.011111631982	1618.323477770868	404.156899068785	919.342285854687	1901.239007763358	1048.836130654309	982.873300911129	1789.576490964581	521.6895355246774	928.8637684887084	1790.556628102249	562.6234711388056	966.4526706641475	1869.418697887416	528.1132014793926	921.2651114644532	1871.179754090746	567.802272986519	957.4551737634462	2104.235659641031	636.0349086926176	888.8357667196482	2047.152628512547	614.1202041649148	927.6200380037228	2055.24016052613	734.582958172659	877.3009514723082	2002.953407802152	715.309336813069	916.6127102197587	2076.719514675331	1059.257079321447	1169.775932101647	1964.418149039378	84.15296070546957	1079.531671761777	1766.64274896802	38.02954367014634	1052.503753727152	1787.798649172969	58.05644618974767	1093.741644889919	1779.439137402307	88.94838670330662	1053.391426761332	2005.797672545814	1112.299863905277	1194.210399636112	2004.053297197471	50.10048863712604	1032.491189074434	1957.662784666798	34.32741169846942	1148.010760937343	1905.07271005567	1071.708392014427	1074.112715102163	1880.348014603997	184.0080847808828	1130.307911116236	1857.507589683142	209.3040333321168	1091.600958086066	1911.64127574449	258.463046571055	1157.266983121088	1886.143841673326	280.7886538013399	1116.380492305919	2072.975736195343	653.1579143639159	1218.676881181199	2006.491368946935	638.4977562353688	1190.936133691123	2040.816395043599	756.8687894527036	1233.615323563428	1978.835300065952	744.3637234591376	1203.947204792864	
2252	15.00666666666667	2079.275020296387	1016.336725782139	925.4794696238109	1633.558722239763	590.5080884643653	982.5357612314443	1656.369132256786	564.0790731599718	944.1889818983601	1683.241541578999	578.7473130695156	986.6951097361035	2020.78977977238	1088.114598600728	880.7199258493982	1642.026969744888	357.6291786537919	1036.385337506063	1638.980569143146	390.8694491811864	919.0111939543385	1899.879161897692	1051.709823018394	983.6389417126048	1804.027791732436	516.2553841198397	928.7447058228316	1803.080988735698	557.3244080539904	966.1530100477695	1883.49656814144	525.8380851541144	921.6398704432507	1883.460099457051	565.5984682588634	957.8305420869916	2114.598539555298	642.8007881990897	889.9939435471919	2058.216658203341	618.4652399974084	928.4349791410207	2061.609120405341	739.2187140766049	878.2136616423438	2009.772353879936	717.6164484215259	916.9462913780404	2075.208925738988	1059.305124546416	1169.946912900554	1941.251706475335	84.23221848393675	1079.920586138508	1743.113260383275	40.24216531686477	1052.984003766005	1764.48458398043	59.81152747309542	1094.325227903482	1756.416758620117	91.02450359080007	1054.145313244272	2006.413912066174	1114.398171744041	1194.062955733708	1980.399129381419	49.86237261090371	1032.645640901377	1933.984267117898	34.18964104353327	1148.047307681409	1903.931714777902	1074.441465810854	1074.884212973087	1858.747310271324	185.5327591980335	1130.582248829968	1836.092495349235	211.1520191491339	1091.999560882736	1890.985160289528	259.5822581937067	1157.585800866341	1865.697109990337	282.2592710192159	1116.74971623771	2060.565899585584	652.3580495028514	1218.32476307813	1993.559761910766	639.6848370182333	1190.776150076007	2031.44143060002	757.0352282665342	1233.376963502373	1969.153253487377	746.3743534769175	1203.644174019302	
2253	15.01333333333333	2078.011474596054	1019.938003842462	925.3509407388171	1643.279619967135	576.5570258219442	980.6445311063395	1667.875320054614	550.9934523499118	942.5623291773599	1693.46093600147	567.4177291362379	985.1703416553679	2018.974806517722	1091.461080591967	880.8389720789627	1663.625751937102	345.0970993950949	1036.660530600773	1659.965737593864	376.9329469720488	918.7595951675235	1898.783668747319	1054.947516511431	984.1160333062661	1817.979015348144	510.2012098783399	928.8681474679569	1814.910150253238	551.4103817277288	965.9685720550721	1896.875018555556	523.3776868859587	922.0704660643971	1894.846370532021	563.2063936695333	958.1432613292093	2124.745868216067	650.5857231620151	891.0672286631567	2069.113564186188	623.9691332415474	929.1740645898986	2067.973604347913	744.748252674523	878.9011521673266	2016.617651435636	720.9213089153309	917.0380672632851	2073.689272584247	1059.655711279972	1170.27650561315	1918.30025581773	84.50554284795106	1080.376060224448	1719.713108275052	43.09809115395368	1053.457095407529	1741.339439722231	62.14568593658386	1094.909042695382	1733.626336454535	93.70435669739263	1054.919192536114	2007.215256019803	1116.589188011868	1193.918049313106	1956.748898262021	49.68612372173521	1032.701491088708	1910.326419327601	34.20457255243561	1147.989579168797	1902.943536286355	1077.389602495818	1075.475664521649	1837.179666312348	187.6261366629825	1130.775979375848	1814.715686232331	213.5178117084969	1092.288645737753	1870.27850244662	261.3024873089652	1157.805487273525	1845.189853235839	284.278474295736	1116.997570557633	2047.765547769016	652.1019469314652	1217.79313947954	1980.443284390896	641.5423249596316	1190.121487164056	2021.761381033042	757.655908788591	1232.957852653297	1959.322069682485	748.9367193107754	1202.935318234139	
2254	15.02	2077.222809073397	1023.943280067256	925.4224912283789	1652.902447166269	561.0333260715953	979.6092760849498	1679.19599570913	536.7621788555969	941.6398300464248	1703.458435361733	554.7769085214428	984.2928139929751	2017.746458504252	1095.213896626696	881.0128191994379	1686.070381869787	331.5805609675092	1036.766835524382	1681.398682460072	362.5268261621227	918.5311118410833	1897.967643719527	1058.547617973035	984.2240037976532	1831.539907046454	503.5180071880353	929.2561549154356	1826.182526244156	544.8379863390228	965.935244391731	1909.641480651694	520.6357520131556	922.5989705922802	1905.442508802624	560.5133941277218	958.4256489209447	2134.608238691495	659.2337387295736	892.0603792424708	2079.744405430946	630.4972237768278	929.8302871814161	2074.300168746452	751.0543174896449	879.3474140536459	2023.433787409446	725.1320356286676	916.8719310491006	2072.189410105481	1060.344073218378	1170.732769241943	1895.606653678377	84.96453036997504	1080.93299151339	1696.496539116062	46.66700544376823	1053.911586391744	1718.415938898239	65.12256180859579	1095.481707735284	1711.131814028248	97.04918205422321	1055.701865920598	2008.117260283671	1118.854576710009	1193.752095019564	1933.121639325628	49.57537600521061	1032.688389044021	1886.693262108184	34.37626822323416	1147.855434763268	1902.129856189395	1080.521243369496	1075.834262065448	1815.695263770602	190.3239806416425	1130.902156275774	1793.436664249909	216.4352858190218	1092.47486871266	1849.571597023038	263.6603722039458	1157.935532315496	1824.681440247595	286.8850816544624	1117.12955868479	2034.679909768824	652.4392285429002	1217.10685164964	1967.236423636228	644.1002533946184	1189.027290919493	2011.883692966829	758.7751998207491	1232.36781713287	1949.439679707705	752.0797669449462	1201.860336476025	
